<svg width="28" height="28" viewBox="0 0 28 28" fill="none" xmlns="http://www.w3.org/2000/svg">
<path d="M4.66602 8.16797H23.3327" stroke="#4B6BA9" stroke-width="1.64706" stroke-linecap="round" stroke-linejoin="round"/>
<path d="M11.668 12.832V19.832" stroke="#4B6BA9" stroke-width="1.64706" stroke-linecap="round" stroke-linejoin="round"/>
<path d="M16.334 12.832V19.832" stroke="#4B6BA9" stroke-width="1.64706" stroke-linecap="round" stroke-linejoin="round"/>
<path d="M5.83398 8.16797L7.00065 22.168C7.00065 22.7868 7.24648 23.3803 7.68407 23.8179C8.12165 24.2555 8.71515 24.5013 9.33398 24.5013H18.6673C19.2862 24.5013 19.8796 24.2555 20.3172 23.8179C20.7548 23.3803 21.0007 22.7868 21.0007 22.168L22.1673 8.16797" stroke="#4B6BA9" stroke-width="1.64706" stroke-linecap="round" stroke-linejoin="round"/>
<path d="M10.5 8.16667V4.66667C10.5 4.35725 10.6229 4.0605 10.8417 3.84171C11.0605 3.62292 11.3572 3.5 11.6667 3.5H16.3333C16.6428 3.5 16.9395 3.62292 17.1583 3.84171C17.3771 4.0605 17.5 4.35725 17.5 4.66667V8.16667" stroke="#4B6BA9" stroke-width="1.64706" stroke-linecap="round" stroke-linejoin="round"/>
</svg>
